<svg width="540" height="250" viewBox="0 0 540 250" fill="none" xmlns="http://www.w3.org/2000/svg">
    <path d="M0 81.0472L69.6977 69.8253C102.349 64.8377 117.419 74.8128 117.419 101.621V108.479C117.419 127.805 108.628 139.651 92.3023 146.509V149.002C111.14 150.873 121.814 160.848 121.814 181.421V188.903C121.814 218.204 105.488 233.79 72.2093 239.401L0 250V81.0472ZM60.2791 139.027C69.6977 137.78 73.4651 133.416 73.4651 124.688V115.96C73.4651 107.232 69.0698 104.115 60.2791 105.361L43.9535 107.855V141.521L60.2791 139.027ZM61.5349 206.359C70.9535 205.112 75.3488 200.125 75.3488 190.149V179.551C75.3488 170.199 70.9535 166.459 61.5349 168.329L43.9535 170.823V208.853L61.5349 206.359Z" fill="white"/>
    <path d="M135.628 58.603L179.581 51.7452V76.6829C179.581 92.2689 178.326 104.114 175.186 122.818L177.698 123.441L210.977 46.7577L256.186 39.2764L221.023 112.219L258.07 211.346L210.349 218.204L190.884 153.366L179.581 174.563V223.192L135.628 230.049V58.603Z" fill="white"/>
    <path d="M270.628 36.7828L336.558 26.1843C370.465 20.5734 388.047 33.6656 388.047 62.3439V67.9549C388.047 88.5285 377.372 103.491 358.535 109.725V112.219C374.233 114.713 379.256 120.324 382.395 139.651L385.535 159.601C388.674 179.551 391.186 183.915 395.581 187.656L394.954 191.396L347.861 198.254C344.721 193.267 343.465 185.162 341.581 168.952L339.698 152.743C337.814 136.533 334.674 131.546 324 133.416L314.581 134.663V203.242L270.628 210.1V36.7828ZM332.163 97.8801C340.326 96.6332 344.093 91.6457 344.093 82.9175V74.1893C344.093 64.8377 340.326 61.7205 332.163 62.9674L314.581 66.0846V100.997L332.163 97.8801Z" fill="white"/>
    <path d="M442.046 9.35162L499.814 0L540 168.953L493.535 175.81L489.767 155.86L448.953 162.095L445.814 183.292L403.116 189.526L442.046 9.35162ZM483.488 124.065L475.953 86.6584C474.07 71.6958 472.186 57.3566 470.93 43.6409L468.419 44.2643C467.163 58.6035 465.279 73.5661 463.395 88.5287L455.86 128.429L483.488 124.065Z" fill="white"/>
    </svg>
    